:FULLY-SPECIFIED
:FORCE-ALL-JOINTS-BE-3DOF
:DEGREES
272
root 8.40668 16.1434 -25.1401 22.1913 70.3065 20.4015
lfemur -24.2712 7.31025 -22.916
ltibia 41.878 -0 0
lfoot -6.60205 -22.2503 -0.0303748
ltoes 63.3874 -0 0
rfemur -53.6965 -5.27933 14.0918
rtibia 82.0604 -0 0
rfoot 7.63536 -0.956866 -0.032518
rtoes 1.2289 -0 0
lowerback 6.60672 -4.56115 -2.67104
upperback 1.67258 -6.2503 -2.00371
thorax -1.90152 -3.08524 -0.0687911
lowerneck -5.10526 -11.2344 -4.76371
upperneck 0.72182 -14.843 5.49476
head 1.92606 -7.3341 1.97831
lclavicle 2.92894e-14 1.17764e-14 -1.02956e-31
lhumerus -44.7607 -35.6096 106.971
lradius 59.1746 -0 0
lwrist 20.3063 0 0
lhand 19.4308 15.0222 0.00793316
lfingers 7.12502 -0 0
lthumb 44.001 38.8759 -0.00115684
rclavicle 2.92894e-14 1.17764e-14 -1.02956e-31
rhumerus -54.8511 3.80238 -96.2377
rradius 45.9829 -0 0
rwrist 23.9558 0 0
rhand -24.5552 3.36962 -0.00821695
rfingers 7.12502 -0 0
rthumb 1.94111 -26.5984 -0.00765112
273
root 8.43102 16.1426 -25.1293 22.8092 70.7045 21.1765
lfemur -24.0558 7.05046 -23.0478
ltibia 41.8446 -0 0
lfoot -6.41381 -22.5143 -0.00800256
ltoes 63.5838 -0 0
rfemur -54.4235 -5.37674 14.3942
rtibia 82.466 -0 0
rfoot 7.43981 -0.684947 -0.00856717
rtoes 1.33795 -0 0
lowerback 6.70406 -4.59908 -2.70417
upperback 1.72211 -6.30444 -2.09867
thorax -1.90936 -3.11336 -0.139414
lowerneck -5.01245 -11.2983 -4.82043
upperneck 0.683197 -14.9314 5.59027
head 1.9117 -7.37768 2.0167
lclavicle 3.03565e-14 1.19354e-14 -2.71275e-32
lhumerus -44.6301 -35.6324 106.731
lradius 59.1316 -0 0
lwrist 20.3121 0 0
lhand 19.6689 15.0768 0.00209016
lfingers 7.12502 -0 0
lthumb 44.2256 38.8674 -0.000304797
rclavicle 3.03565e-14 1.19354e-14 -2.71275e-32
rhumerus -55.1369 3.93106 -96.8461
rradius 46.0903 -0 0
rwrist 23.5726 0 0
rhand -24.6953 3.46601 -0.002165
rfingers 7.12502 -0 0
rthumb 1.80576 -26.5054 -0.00201592
274
root 8.4395 16.1423 -25.1255 23.0313 70.8426 21.4534
lfemur -23.9806 6.96001 -23.0939
ltibia 41.8329 0 0
lfoot -6.34822 -22.6063 0
ltoes 63.6522 0 0
rfemur -54.677 -5.40979 14.4999
rtibia 82.6074 0 0
rfoot 7.37167 -0.590177 0
rtoes 1.37596 0 0
lowerback 6.738 -4.61229 -2.71573
upperback 1.7394 -6.3233 -2.13178
thorax -1.91208 -3.12316 -0.164029
lowerneck -4.98008 -11.3206 -4.84023
upperneck 0.669695 -14.9622 5.62359
head 1.90668 -7.39287 2.03008
lclavicle 3.07285e-14 1.19908e-14 0
lhumerus -44.5846 -35.6402 106.647
lradius 59.1166 0 0
lwrist 20.3141 0 0
lhand 19.7519 15.0959 0
lfingers 7.12502 0 0
lthumb 44.3039 38.8645 0
rclavicle 3.07285e-14 1.19908e-14 0
rhumerus -55.2369 3.9752 -97.0583
rradius 46.1277 0 0
rwrist 23.439 0 0
rhand -24.7442 3.49961 0
rfingers 7.12502 0 0
rthumb 1.75858 -746.473 0
275
root 8.44696 16.1365 -25.1185 23.0643 70.8774 21.5484
lfemur -23.9193 6.99012 -23.0785
ltibia 41.9214 -0 0
lfoot -6.39826 -22.6763 0.00462772
ltoes 63.6111 -0 0
rfemur -54.5799 -5.39656 14.5725
rtibia 82.4001 -0 0
rfoot 7.32066 -0.707908 0.00798092
rtoes 1.67986 -0 0
lowerback 6.73933 -4.61415 -2.74837
upperback 1.75704 -6.32636 -2.14395
thorax -1.89201 -3.1249 -0.159615
lowerneck -4.96521 -11.3265 -4.85112
upperneck 0.687058 -14.9714 5.64334
head 1.91355 -7.39741 2.03801
lclavicle 2.99078e-14 1.18935e-14 -1.05118e-31
lhumerus -44.5612 -35.6671 106.611
lradius 59.1266 -0 0
lwrist 20.3097 0 0
lhand 19.758 15.1003 3.54066e-05
lfingers 7.12502 -0 0
lthumb 44.3096 38.8667 1.66359e-05
rclavicle 2.99078e-14 1.18935e-14 -1.05118e-31
rhumerus -55.3377 4.17401 -97.0849
rradius 46.3263 -0 0
rwrist 23.3975 0 0
rhand -24.7571 3.40476 0.00161308
rfingers 7.12502 -0 0
rthumb 1.74617 -26.5679 0.00155874
276
root 8.46834 16.1199 -25.0983 23.1604 70.9773 21.8221
lfemur -23.7433 7.07639 -23.0343
ltibia 42.1753 -0 0
lfoot -6.54186 -22.877 0.0175644
ltoes 63.4931 -0 0
rfemur -54.3011 -5.35928 14.781
rtibia 81.8055 -0 0
rfoot 7.17423 -1.04567 0.0302935
rtoes 2.55182 -0 0
lowerback 6.74315 -4.61948 -2.84203
upperback 1.80764 -6.33511 -2.17887
thorax -1.83444 -3.1299 -0.146956
lowerneck -4.92256 -11.3435 -4.88237
upperneck 0.736858 -14.9978 5.69998
head 1.93324 -7.41042 2.06077
lclavicle 2.75532e-14 1.16143e-14 -3.98948e-31
lhumerus -44.4939 -35.744 106.506
lradius 59.1554 -0 0
lwrist 20.2969 0 0
lhand 19.7754 15.113 0.000134378
lfingers 7.12502 -0 0
lthumb 44.3258 38.8731 6.31378e-05
rclavicle 2.75532e-14 1.16143e-14 -3.98948e-31
rhumerus -55.6277 4.74413 -97.1632
rradius 46.896 -0 0
rwrist 23.2786 0 0
rhand -24.7939 3.13266 0.00612247
rfingers 7.12502 -0 0
rthumb 1.71054 -26.8401 0.00591622
277
root 8.5022 16.0935 -25.0663 23.3166 71.135 22.2593
lfemur -23.4645 7.21268 -22.9636
ltibia 42.5771 -0 0
lfoot -6.76923 -23.1947 0.037012
ltoes 63.3063 -0 0
rfemur -53.8598 -5.30234 15.1112
rtibia 80.8644 -0 0
rfoot 6.94222 -1.58038 0.0638427
rtoes 3.93211 -0 0
lowerback 6.74921 -4.6279 -2.99028
upperback 1.88776 -6.34889 -2.23416
thorax -1.74331 -3.13784 -0.126929
lowerneck -4.85501 -11.3702 -4.93186
upperneck 0.815646 -15.0396 5.78962
head 1.96441 -7.43105 2.09678
lclavicle 2.38262e-14 1.11724e-14 -8.40589e-31
lhumerus -44.3868 -35.8657 106.34
lradius 59.201 -0 0
lwrist 20.2767 0 0
lhand 19.803 15.1332 0.000283136
lfingers 7.12502 -0 0
lthumb 44.3514 38.8833 0.000133032
rclavicle 2.38262e-14 1.11724e-14 -8.40589e-31
rhumerus -56.0889 5.64567 -97.2933
rradius 47.7976 -0 0
rwrist 23.0902 0 0
rhand -24.8524 2.70198 0.0129017
rfingers 7.12502 -0 0
rthumb 1.65411 -27.271 0.0124671
278
root 8.54705 16.0587 -25.024 23.5311 71.3434 22.846
lfemur -23.0947 7.39271 -22.869
ltibia 43.1095 -0 0
lfoot -7.07063 -23.6158 0.060835
ltoes 63.0588 -0 0
rfemur -53.2744 -5.23079 15.5495
rtibia 79.6173 -0 0
rfoot 6.63426 -2.28923 0.104966
rtoes 5.76078 -0 0
lowerback 6.75727 -4.63904 -3.18671
upperback 1.99394 -6.36704 -2.30745
thorax -1.62258 -3.14842 -0.100413
lowerneck -4.76547 -11.4056 -4.99749
upperneck 0.919957 -15.0952 5.90832
head 2.00569 -7.4584 2.14448
lclavicle 1.88883e-14 1.0587e-14 -1.38145e-30
lhumerus -44.2441 -36.0265 106.12
lradius 59.2614 -0 0
lwrist 20.25 0 0
lhand 19.8395 15.1598 0.000465317
lfingers 7.12502 -0 0
lthumb 44.3855 38.8967 0.00021863
rclavicle 1.88883e-14 1.0587e-14 -1.38145e-30
rhumerus -56.7044 6.83865 -97.4772
rradius 48.9925 -0 0
rwrist 22.8408 0 0
rhand -24.9298 2.13137 0.0212066
rfingers 7.12502 -0 0
rthumb 1.57928 -27.842 0.0204922
279
root 8.60143 16.0164 -24.9727 23.8035 71.5951 23.5694
lfemur -22.6458 7.61019 -22.7526
ltibia 43.7551 -0 0
lfoot -7.43631 -24.1266 0.0867482
ltoes 62.7588 -0 0
rfemur -52.564 -5.15003 16.0817
rtibia 78.1052 -0 0
rfoot 6.26028 -3.14888 0.149706
rtoes 7.9781 -0 0
lowerback 6.7671 -4.65251 -3.4249
upperback 2.12272 -6.38886 -2.39636
thorax -1.47618 -3.16131 -0.06829
lowerneck -4.65682 -11.4484 -5.07715
upperneck 1.04632 -15.163 6.05215
head 2.05571 -7.49161 2.20229
lclavicle 1.29009e-14 9.87707e-15 -1.96959e-30
lhumerus -44.0696 -36.2208 105.851
lradius 59.3346 -0 0
lwrist 20.2176 0 0
lhand 19.8838 15.1921 0.000663421
lfingers 7.12502 -0 0
lthumb 44.4267 38.9131 0.00031171
rclavicle 1.29009e-14 9.87707e-15 -1.96959e-30
rhumerus -57.4581 8.28231 -97.7183
rradius 50.4411 -0 0
rwrist 22.5383 0 0
rhand -25.0239 1.4393 0.030243
rfingers 7.12502 -0 0
rthumb 1.48842 -28.5344 0.0292242
280
root 8.66387 15.9678 -24.9137 24.1334 71.8828 24.4167
lfemur -22.1294 7.8588 -22.6167
ltibia 44.4966 -0 0
lfoot -7.8566 -24.7135 0.112488
ltoes 62.4142 -0 0
rfemur -51.7475 -5.0654 16.694
rtibia 76.3689 -0 0
rfoot 5.82999 -4.13649 0.194159
rtoes 10.5243 -0 0
lowerback 6.77846 -4.66792 -3.69845
upperback 2.27065 -6.41368 -2.49853
thorax -1.30808 -3.17622 -0.0314429
lowerneck -4.53197 -11.4973 -5.16875
upperneck 1.19126 -15.2412 6.21718
head 2.11312 -7.52982 2.26865
lclavicle 6.02555e-15 9.06189e-15 -2.55345e-30
lhumerus -43.8673 -36.4432 105.541
lradius 59.4186 -0 0
lwrist 20.1804 0 0
lhand 19.9347 15.2292 0.000860087
lfingers 7.12502 -0 0
lthumb 44.4741 38.9318 0.000404113
rclavicle 6.02555e-15 9.06189e-15 -2.55345e-30
rhumerus -58.3349 9.93601 -98.02
rradius 52.1046 -0 0
rwrist 22.1909 0 0
rhand -25.1321 0.644692 0.0392158
rfingers 7.12502 -0 0
rthumb 1.38397 -29.3294 0.0378947
281
root 8.73291 15.9141 -24.8486 24.5202 72.199 25.3753
lfemur -21.5574 8.13226 -22.4638
ltibia 45.3163 -0 0
lfoot -8.3215 -25.3624 0.13593
ltoes 62.0332 -0 0
rfemur -50.8438 -4.98197 17.3723
rtibia 74.4491 -0 0
rfoot 5.35346 -5.22872 0.234663
rtoes 13.3395 -0 0
lowerback 6.7911 -4.6849 -4.00092
upperback 2.43427 -6.44081 -2.61158
thorax -1.12222 -3.19282 0.00924791
lowerneck -4.3938 -11.5512 -5.27018
upperneck 1.35131 -15.3281 6.39949
head 2.17655 -7.57213 2.34198
lclavicle -1.5764e-15 8.16056e-15 -3.08513e-30
lhumerus -43.6412 -36.688 105.195
lradius 59.5116 -0 0
lwrist 20.1393 0 0
lhand 19.9909 15.2703 0.00103918
lfingers 7.12502 -0 0
lthumb 44.5264 38.9525 0.000488259
rclavicle -1.5764e-15 8.16056e-15 -3.08513e-30
rhumerus -59.3205 11.7589 -98.3857
rradius 53.9439 -0 0
rwrist 21.8068 0 0
rhand -25.2518 -0.233913 0.04739
rfingers 7.12502 -0 0
rthumb 1.26836 -30.2085 0.0457935
282
root 8.80708 15.8564 -24.7786 24.963 72.5364 26.4318
lfemur -20.9416 8.42436 -22.2963
ltibia 46.1969 -0 0
lfoot -8.82123 -26.0598 0.155246
ltoes 61.6239 -0 0
rfemur -49.8721 -4.90423 18.1022
rtibia 72.3866 -0 0
rfoot 4.84075 -6.40249 0.268046
rtoes 16.3641 -0 0
lowerback 6.80478 -4.70307 -4.32589
upperback 2.61013 -6.46961 -2.73313
thorax -0.922547 -3.21081 0.0529043
lowerneck -4.24523 -11.6088 -5.37931
upperneck 1.52302 -15.422 6.59516
head 2.24464 -7.61768 2.42072
lclavicle -9.74344e-15 7.19223e-15 -3.52309e-30
lhumerus -43.3954 -36.9498 104.822
lradius 59.6114 -0 0
lwrist 20.0951 0 0
lhand 20.0513 15.3144 0.0011867
lfingers 7.12502 -0 0
lthumb 44.5827 38.9747 0.000557572
rclavicle -9.74344e-15 7.19223e-15 -3.52309e-30
rhumerus -60.4005 13.71 -98.8173
rradius 55.92 -0 0
rwrist 21.3941 0 0
rhand -25.3805 -1.17793 0.0541259
rfingers 7.12502 -0 0
rthumb 1.14403 -31.153 0.0523026
